<svg width="24" height="24" viewBox="0 0 24 24" fill="none" xmlns="http://www.w3.org/2000/svg">
<path d="M17 16.9999C17.4167 16.9999 17.771 16.8539 18.063 16.5619C18.355 16.2699 18.5007 15.9159 18.5 15.4999C18.5 15.0832 18.354 14.7289 18.062 14.4369C17.77 14.1449 17.416 13.9992 17 13.9999C16.5833 13.9999 16.229 14.1459 15.937 14.4379C15.645 14.7299 15.4993 15.0839 15.5 15.4999C15.5 15.9166 15.646 16.2709 15.938 16.5629C16.23 16.8549 16.584 17.0006 17 16.9999ZM17 19.9999C17.5167 19.9999 17.9917 19.8789 18.425 19.6369C18.8583 19.3949 19.2083 19.0742 19.475 18.6749C19.1083 18.4582 18.7167 18.2916 18.3 18.1749C17.8833 18.0582 17.45 17.9999 17 17.9999C16.55 17.9999 16.1167 18.0582 15.7 18.1749C15.2833 18.2916 14.8917 18.4582 14.525 18.6749C14.7917 19.0749 15.1417 19.3959 15.575 19.6379C16.0083 19.8799 16.4833 20.0006 17 19.9999ZM17 21.9999C15.6167 21.9999 14.4373 21.5122 13.462 20.5369C12.4867 19.5616 11.9993 18.3826 12 16.9999C12 15.6166 12.4877 14.4372 13.463 13.4619C14.4383 12.4866 15.6173 11.9992 17 11.9999C18.3833 11.9999 19.5627 12.4876 20.538 13.4629C21.5133 14.4382 22.0007 15.6172 22 16.9999C22 18.3832 21.5123 19.5626 20.537 20.5379C19.5617 21.5132 18.3827 22.0006 17 21.9999ZM12 21.9999C9.68333 21.4166 7.77067 20.0872 6.262 18.0119C4.75333 15.9366 3.99933 13.6326 4 11.0999V6.3749C4 5.95824 4.121 5.58324 4.363 5.2499C4.605 4.91657 4.91733 4.6749 5.3 4.5249L11.3 2.2749C11.5333 2.19157 11.7667 2.1499 12 2.1499C12.2333 2.1499 12.4667 2.19157 12.7 2.2749L18.7 4.5249C19.0833 4.6749 19.396 4.91657 19.638 5.2499C19.88 5.58324 20.0007 5.95824 20 6.3749V10.6749C19.5667 10.4582 19.079 10.2916 18.537 10.1749C17.995 10.0582 17.4827 9.9999 17 9.9999C15.0667 9.9999 13.4167 10.6832 12.05 12.0499C10.6833 13.4166 10 15.0666 10 16.9999C10 18.0332 10.196 18.9666 10.588 19.7999C10.98 20.6332 11.4757 21.3582 12.075 21.9749C12.0583 21.9749 12.046 21.9792 12.038 21.9879C12.03 21.9966 12.0173 22.0006 12 21.9999Z" fill="white"/>
</svg>
