<svg width="24" height="24" viewBox="0 0 24 24" fill="none" xmlns="http://www.w3.org/2000/svg">
<path d="M6 22C5.45 22 4.979 21.804 4.587 21.412C4.195 21.02 3.99934 20.5493 4 20V4C4 3.45 4.196 2.979 4.588 2.587C4.98 2.195 5.45067 1.99934 6 2H18C18.55 2 19.021 2.196 19.413 2.588C19.805 2.98 20.0007 3.45067 20 4V20C20 20.55 19.804 21.021 19.412 21.413C19.02 21.805 18.5493 22.0007 18 22H6ZM11.25 16.5L10.1 15C10 14.8667 9.86667 14.8 9.7 14.8C9.53334 14.8 9.4 14.8667 9.3 15L7.625 17.2C7.49167 17.3667 7.47067 17.5417 7.562 17.725C7.65333 17.9083 7.80767 18 8.025 18H15.975C16.1917 18 16.3457 17.9083 16.437 17.725C16.5283 17.5417 16.5077 17.3667 16.375 17.2L13.95 14.025C13.85 13.8917 13.7167 13.825 13.55 13.825C13.3833 13.825 13.25 13.8917 13.15 14.025L11.25 16.5Z" fill="white" fill-opacity="0.6"/>
</svg>
