<svg width="24" height="24" viewBox="0 0 24 24" fill="none" xmlns="http://www.w3.org/2000/svg">
<path d="M17.275 20.25L20.75 16.8L19.7 15.75L17.275 18.125L16.3 17.15L15.25 18.225L17.275 20.25ZM6 9H18V7H6V9ZM18 23C16.6167 23 15.4373 22.5123 14.462 21.537C13.4867 20.5617 12.9993 19.3827 13 18C13 16.6167 13.4877 15.4373 14.463 14.462C15.4383 13.4867 16.6173 12.9993 18 13C19.3833 13 20.5627 13.4877 21.538 14.463C22.5133 15.4383 23.0007 16.6173 23 18C23 19.3833 22.5123 20.5627 21.537 21.538C20.5617 22.5133 19.3827 23.0007 18 23ZM3 22V3H21V11.675C20.5333 11.4417 20.0457 11.2707 19.537 11.162C19.0283 11.0533 18.516 10.9993 18 11H6V13H13.1C12.8167 13.2833 12.5543 13.5917 12.313 13.925C12.0717 14.2583 11.859 14.6167 11.675 15H6V17H11.075C11.0417 17.1667 11.0207 17.3293 11.012 17.488C11.0033 17.6467 10.9993 17.8173 11 18C11 18.7 11.096 19.371 11.288 20.013C11.48 20.655 11.7673 21.2673 12.15 21.85L12 22L10.5 20.5L9 22L7.5 20.5L6 22L4.5 20.5L3 22Z" fill="white" fill-opacity="0.6"/>
</svg>
