<svg width="24" height="24" viewBox="0 0 24 24" fill="none" xmlns="http://www.w3.org/2000/svg">
<path d="M6.5 11L12 2L17.5 11H6.5ZM17.5 22C16.25 22 15.1873 21.5623 14.312 20.687C13.4367 19.8117 12.9993 18.7493 13 17.5C13 16.25 13.4377 15.1873 14.313 14.312C15.1883 13.4367 16.2507 12.9993 17.5 13C18.75 13 19.8127 13.4377 20.688 14.313C21.5633 15.1883 22.0007 16.2507 22 17.5C22 18.75 21.5623 19.8127 20.687 20.688C19.8117 21.5633 18.7493 22.0007 17.5 22ZM3 21.5V13.5H11V21.5H3Z" fill="white" fill-opacity="0.6"/>
</svg>
