<svg width="24" height="24" viewBox="0 0 24 24" fill="none" xmlns="http://www.w3.org/2000/svg">
<path fill-rule="evenodd" clip-rule="evenodd" d="M12.052 1.25H11.948C11.049 1.25 10.3 1.25 9.706 1.33C9.078 1.414 8.511 1.6 8.056 2.055C7.6 2.511 7.414 3.078 7.33 3.705C7.273 4.132 7.256 5.151 7.252 6.025C5.23 6.092 4.015 6.328 3.172 7.172C2 8.343 2 10.229 2 14C2 17.771 2 19.657 3.172 20.828C4.343 22 6.229 22 10 22H14C17.771 22 19.657 22 20.828 20.828C22 19.657 22 17.771 22 14C22 10.229 22 8.343 20.828 7.172C19.985 6.328 18.77 6.092 16.748 6.026C16.744 5.151 16.728 4.132 16.67 3.706C16.586 3.078 16.4 2.511 15.944 2.056C15.489 1.6 14.922 1.414 14.294 1.33C13.7 1.25 12.95 1.25 12.052 1.25ZM15.248 6.002C15.243 5.155 15.229 4.244 15.184 3.905C15.121 3.444 15.014 3.246 14.884 3.116C14.754 2.986 14.556 2.879 14.094 2.816C13.612 2.752 12.964 2.75 12 2.75C11.036 2.75 10.388 2.752 9.905 2.817C9.444 2.879 9.246 2.986 9.116 3.117C8.986 3.247 8.879 3.444 8.816 3.905C8.771 4.245 8.756 5.155 8.752 6.002C9.143 6 9.56 6 10 6H14C14.441 6 14.857 6 15.248 6.002ZM12 9.25C12.1989 9.25 12.3897 9.32902 12.5303 9.46967C12.671 9.61032 12.75 9.80109 12.75 10V10.01C13.839 10.284 14.75 11.143 14.75 12.333C14.75 12.5319 14.671 12.7227 14.5303 12.8633C14.3897 13.004 14.1989 13.083 14 13.083C13.8011 13.083 13.6103 13.004 13.4697 12.8633C13.329 12.7227 13.25 12.5319 13.25 12.333C13.25 11.949 12.824 11.417 12 11.417C11.176 11.417 10.75 11.949 10.75 12.333C10.75 12.717 11.176 13.25 12 13.25C13.385 13.25 14.75 14.21 14.75 15.667C14.75 16.857 13.839 17.715 12.75 17.99V18C12.75 18.1989 12.671 18.3897 12.5303 18.5303C12.3897 18.671 12.1989 18.75 12 18.75C11.8011 18.75 11.6103 18.671 11.4697 18.5303C11.329 18.3897 11.25 18.1989 11.25 18V17.99C10.161 17.716 9.25 16.857 9.25 15.667C9.25 15.4681 9.32902 15.2773 9.46967 15.1367C9.61032 14.996 9.80109 14.917 10 14.917C10.1989 14.917 10.3897 14.996 10.5303 15.1367C10.671 15.2773 10.75 15.4681 10.75 15.667C10.75 16.051 11.176 16.583 12 16.583C12.824 16.583 13.25 16.051 13.25 15.667C13.25 15.283 12.824 14.75 12 14.75C10.615 14.75 9.25 13.79 9.25 12.333C9.25 11.143 10.161 10.284 11.25 10.01V10C11.25 9.80109 11.329 9.61032 11.4697 9.46967C11.6103 9.32902 11.8011 9.25 12 9.25Z" fill="white" fill-opacity="0.6"/>
</svg>
