<svg width="24" height="24" viewBox="0 0 24 24" fill="none" xmlns="http://www.w3.org/2000/svg">
<path fill-rule="evenodd" clip-rule="evenodd" d="M7.49977 4.75C7.49977 4.531 9.75777 3 11.9998 3C14.2418 3 16.4998 4.5315 16.4998 4.75C16.4998 5.53 16.4168 5.992 16.3468 6.2435C16.3003 6.4085 16.1458 6.5 15.9743 6.5H8.02527C7.85377 6.5 7.69927 6.4085 7.65277 6.2435C7.58277 5.992 7.49977 5.53 7.49977 4.75ZM11.2498 4.5C11.1172 4.5 10.99 4.55268 10.8962 4.64645C10.8025 4.74021 10.7498 4.86739 10.7498 5C10.7498 5.13261 10.8025 5.25979 10.8962 5.35355C10.99 5.44732 11.1172 5.5 11.2498 5.5H12.7498C12.8824 5.5 13.0096 5.44732 13.1033 5.35355C13.1971 5.25979 13.2498 5.13261 13.2498 5C13.2498 4.86739 13.1971 4.74021 13.1033 4.64645C13.0096 4.55268 12.8824 4.5 12.7498 4.5H11.2498ZM8.01877 9.609C6.35377 9.094 6.77377 8.174 7.40877 7.5H16.7298C17.2378 8.149 17.5103 9.0245 15.9748 9.5485C16.0375 10.1055 15.9825 10.6695 15.8133 11.2039C15.6441 11.7383 15.3645 12.2311 14.9925 12.6505C14.6206 13.0698 14.1647 13.4064 13.6543 13.6382C13.144 13.87 12.5906 13.992 12.0301 13.9962C11.4696 14.0005 10.9144 13.8868 10.4006 13.6627C9.88686 13.4386 9.42591 13.109 9.0477 12.6953C8.66948 12.2816 8.38244 11.793 8.20519 11.2613C8.02793 10.7295 7.96442 10.1664 8.01877 9.6085V9.609ZM11.8638 10C13.1848 10 14.2088 9.93 14.9938 9.808C15.0196 10.2157 14.9619 10.6243 14.8242 11.0089C14.6865 11.3934 14.4717 11.7458 14.193 12.0444C13.9143 12.3431 13.5775 12.5816 13.2034 12.7455C12.8292 12.9094 12.4255 12.9951 12.017 12.9975C11.6086 12.9998 11.2039 12.9187 10.8279 12.7592C10.4519 12.5996 10.1124 12.365 9.83029 12.0696C9.54816 11.7742 9.32933 11.4243 9.18721 11.0413C9.04509 10.6584 8.98267 10.2504 9.00377 9.8425C9.73527 9.9435 10.6728 10 11.8638 10ZM16.2083 17.3C15.756 16.5944 15.1335 16.0139 14.3981 15.612C13.6626 15.2101 12.8379 14.9996 11.9998 15C11.1613 14.9995 10.3362 15.2099 9.60049 15.6121C8.86476 16.0142 8.24206 16.595 7.78977 17.301C7.62191 17.0425 7.36412 16.8554 7.06627 16.776L6.10027 16.5175C5.78009 16.4317 5.43893 16.4765 5.15181 16.6422C4.8647 16.8079 4.65516 17.0808 4.56927 17.401L4.18127 18.85C4.13878 19.0086 4.12794 19.174 4.14937 19.3367C4.1708 19.4995 4.22408 19.6564 4.30616 19.7986C4.38825 19.9408 4.49754 20.0654 4.62779 20.1653C4.75804 20.2652 4.9067 20.3385 5.06527 20.381L6.03077 20.64C6.19318 20.6837 6.36275 20.6942 6.52929 20.6706C6.69582 20.6471 6.85587 20.5901 6.99977 20.503C7.00017 20.6356 7.05323 20.7626 7.14728 20.8561C7.24133 20.9496 7.36867 21.0019 7.50127 21.0015C7.63388 21.0011 7.7609 20.948 7.85439 20.854C7.94788 20.7599 8.00017 20.6326 7.99977 20.5V20C7.99977 19.8095 8.01327 19.622 8.03877 19.4385L10.6408 20.136C10.7616 20.3945 10.9536 20.6132 11.1943 20.7665C11.435 20.9197 11.7144 21.0011 11.9998 21.0011C12.2851 21.0011 12.5645 20.9197 12.8053 20.7665C13.046 20.6132 13.238 20.3945 13.3588 20.136L15.9608 19.4385C15.9863 19.622 15.9998 19.8095 15.9998 20V20.5C15.9991 20.6326 16.0512 20.76 16.1445 20.8543C16.2378 20.9485 16.3647 21.0018 16.4973 21.0025C16.6299 21.0032 16.7573 20.9511 16.8516 20.8578C16.9458 20.7645 16.9991 20.6376 16.9998 20.505C17.2798 20.673 17.6258 20.7315 17.9663 20.64L18.9323 20.3815C19.0909 20.339 19.2395 20.2657 19.3698 20.1658C19.5 20.0659 19.6093 19.9413 19.6914 19.7991C19.7735 19.6569 19.8268 19.5 19.8482 19.3372C19.8696 19.1745 19.8588 19.0091 19.8163 18.8505L19.4278 17.4015C19.3419 17.0813 19.1323 16.8084 18.8452 16.6427C18.5581 16.477 18.217 16.4322 17.8968 16.518L16.9308 16.7765C16.6336 16.8556 16.3763 17.0424 16.2083 17.3ZM8.30127 18.4735C8.57137 17.8203 9.00957 17.2502 9.57136 16.8212C10.1331 16.3922 10.7985 16.1196 11.4998 16.031V18.0855C11.2757 18.165 11.0737 18.2965 10.9103 18.4692C10.7469 18.6419 10.6267 18.8509 10.5598 19.079L8.30127 18.474V18.4735ZM15.6983 18.4735C15.4281 17.8203 14.9899 17.2503 14.4281 16.8213C13.8664 16.3923 13.201 16.1196 12.4998 16.031V18.0855C12.9518 18.2455 13.3048 18.6155 13.4398 19.079L15.6983 18.474V18.4735ZM11.9998 20C12.1324 20 12.2596 19.9473 12.3533 19.8536C12.4471 19.7598 12.4998 19.6326 12.4998 19.5C12.4998 19.3674 12.4471 19.2402 12.3533 19.1464C12.2596 19.0527 12.1324 19 11.9998 19C11.8672 19 11.74 19.0527 11.6462 19.1464C11.5525 19.2402 11.4998 19.3674 11.4998 19.5C11.4998 19.6326 11.5525 19.7598 11.6462 19.8536C11.74 19.9473 11.8672 20 11.9998 20Z" fill="white" fill-opacity="0.6"/>
</svg>
