<svg width="24" height="24" viewBox="0 0 24 24" fill="none" xmlns="http://www.w3.org/2000/svg">
<path d="M12 21.251C6.477 21.251 2 16.774 2 11.251C2 5.72798 6.477 1.25098 12 1.25098C17.523 1.25098 22 5.72798 22 11.251C22 16.774 17.523 21.251 12 21.251ZM8.5 13.251V15.251H11V17.251H13V15.251H14C14.663 15.251 15.2989 14.9876 15.7678 14.5187C16.2366 14.0499 16.5 13.414 16.5 12.751C16.5 12.0879 16.2366 11.4521 15.7678 10.9832C15.2989 10.5144 14.663 10.251 14 10.251H10C9.86739 10.251 9.74021 10.1983 9.64645 10.1045C9.55268 10.0108 9.5 9.88358 9.5 9.75098C9.5 9.61837 9.55268 9.49119 9.64645 9.39742C9.74021 9.30365 9.86739 9.25098 10 9.25098H15.5V7.25098H13V5.25098H11V7.25098H10C9.33696 7.25098 8.70107 7.51437 8.23223 7.98321C7.76339 8.45205 7.5 9.08793 7.5 9.75098C7.5 10.414 7.76339 11.0499 8.23223 11.5187C8.70107 11.9876 9.33696 12.251 10 12.251H14C14.1326 12.251 14.2598 12.3037 14.3536 12.3974C14.4473 12.4912 14.5 12.6184 14.5 12.751C14.5 12.8836 14.4473 13.0108 14.3536 13.1045C14.2598 13.1983 14.1326 13.251 14 13.251H8.5Z" fill="white" fill-opacity="0.6"/>
</svg>
