<svg width="24" height="24" viewBox="0 0 24 24" fill="none" xmlns="http://www.w3.org/2000/svg">
<path d="M12 10.6534C13.7526 10.6534 15.1733 9.25054 15.1733 7.52005C15.1733 5.78956 13.7526 4.38672 12 4.38672C10.2474 4.38672 8.82666 5.78956 8.82666 7.52005C8.82666 9.25054 10.2474 10.6534 12 10.6534Z" fill="white" fill-opacity="0.6"/>
<path d="M7.18684 7.8333H7.50684V7.54664C7.50879 6.71304 7.74396 5.89661 8.18577 5.18972C8.62758 4.48282 9.25839 3.91367 10.0068 3.54664C9.78527 3.03635 9.42962 2.59559 8.97767 2.2712C8.52571 1.9468 7.99434 1.75087 7.43998 1.70421C6.88561 1.65756 6.32897 1.76192 5.82915 2.00622C5.32934 2.25052 4.90503 2.62563 4.60128 3.09171C4.29753 3.55779 4.1257 4.09744 4.10402 4.65334C4.08234 5.20924 4.21163 5.76063 4.47816 6.24895C4.74468 6.73727 5.1385 7.14429 5.61776 7.42677C6.09703 7.70925 6.64386 7.85665 7.20018 7.8533L7.18684 7.8333ZM16.5068 7.51997V7.80664H16.8268C17.3757 7.80113 17.913 7.64775 18.3821 7.36263C18.8512 7.07752 19.2347 6.67122 19.4923 6.18651C19.75 5.70179 19.8722 5.15658 19.8461 4.60827C19.82 4.05996 19.6465 3.52883 19.344 3.07078C19.0415 2.61273 18.6211 2.2447 18.1271 2.00544C17.633 1.76617 17.0836 1.66452 16.5367 1.71117C15.9897 1.75783 15.4655 1.95107 15.0191 2.27056C14.5727 2.59005 14.2207 3.02397 14.0002 3.52664C14.7489 3.89223 15.3804 4.45995 15.8233 5.16562C16.2663 5.8713 16.503 6.6868 16.5068 7.51997ZM14.8602 10.9666C16.1857 11.229 17.4673 11.6779 18.6668 12.3C18.8358 12.3928 18.9889 12.5121 19.1202 12.6533H22.6668V10.3733C22.6675 10.2859 22.6442 10.1999 22.5996 10.1247C22.5549 10.0495 22.4906 9.98793 22.4135 9.94664C20.6856 9.04285 18.7635 8.57376 16.8135 8.57997H16.3735C16.1425 9.51912 15.6111 10.3571 14.8602 10.9666ZM4.35351 13.9466C4.35229 13.6109 4.44297 13.2812 4.61571 12.9933C4.78845 12.7054 5.03668 12.4702 5.33351 12.3133C6.53303 11.6912 7.81467 11.2423 9.14018 10.98C8.39289 10.3757 7.86185 9.54519 7.62684 8.61331H7.18684C5.23686 8.6071 3.31474 9.07618 1.58684 9.97997C1.50975 10.0213 1.44541 10.0828 1.40077 10.158C1.35612 10.2332 1.33286 10.3192 1.33351 10.4066V14.6666H4.35351V13.9466ZM14.3068 17.7933H18.2802V18.7266H14.3068V17.7933Z" fill="white" fill-opacity="0.6"/>
<path d="M21.8737 14.1734H17.2937V13.5068C17.2937 13.33 17.2235 13.1604 17.0984 13.0354C16.9734 12.9103 16.8038 12.8401 16.627 12.8401C16.4502 12.8401 16.2806 12.9103 16.1556 13.0354C16.0306 13.1604 15.9604 13.33 15.9604 13.5068V14.1734H14.667V12.2868C13.7899 12.1026 12.8966 12.0066 12.0004 12.0001C9.8962 11.9913 7.8221 12.4996 5.96036 13.4801C5.87743 13.5231 5.80802 13.5882 5.75978 13.6682C5.71154 13.7482 5.68636 13.84 5.68702 13.9334V17.6734H10.427V21.7334C10.427 21.9103 10.4973 22.0798 10.6223 22.2048C10.7473 22.3299 10.9169 22.4001 11.0937 22.4001H21.8737C22.0505 22.4001 22.2201 22.3299 22.3451 22.2048C22.4701 22.0798 22.5404 21.9103 22.5404 21.7334V14.8401C22.5404 14.6633 22.4701 14.4937 22.3451 14.3687C22.2201 14.2437 22.0505 14.1734 21.8737 14.1734ZM21.207 21.0801H11.7604V15.5068H15.9604V16.1134C15.9604 16.2903 16.0306 16.4598 16.1556 16.5848C16.2806 16.7099 16.4502 16.7801 16.627 16.7801C16.8038 16.7801 16.9734 16.7099 17.0984 16.5848C17.2235 16.4598 17.2937 16.2903 17.2937 16.1134V15.5068H21.207V21.0801Z" fill="white" fill-opacity="0.6"/>
</svg>
