<svg width="24" height="24" viewBox="0 0 24 24" fill="none" xmlns="http://www.w3.org/2000/svg">
<path d="M20.9752 8.72469C21.6316 8.06828 22.0004 7.178 22.0004 6.24969C22.0004 5.32139 21.6316 4.4311 20.9752 3.77469C20.3188 3.11828 19.4285 2.74951 18.5002 2.74951C17.5719 2.74951 16.6816 3.11828 16.0252 3.77469M20.9752 8.72469C20.6502 9.04971 20.2643 9.30753 19.8396 9.48343C19.415 9.65933 18.9598 9.74987 18.5002 9.74987C17.5719 9.74987 16.6816 9.3811 16.0252 8.72469C15.3688 8.06828 15 7.178 15 6.24969C15 5.32139 15.3688 4.4311 16.0252 3.77469M20.9752 8.72469L18.5002 6.24969L16.0252 3.77469" stroke="white" stroke-opacity="0.6" stroke-width="2" stroke-linecap="round" stroke-linejoin="round"/>
<path fill-rule="evenodd" clip-rule="evenodd" d="M21 12.252C20.2079 12.5819 19.3581 12.7512 18.5 12.75C17.4015 12.7507 16.3207 12.4727 15.3588 11.9421C14.397 11.4115 13.5854 10.6456 13 9.716V16.75C13 17.0152 12.8946 17.2696 12.7071 17.4571C12.5196 17.6446 12.2652 17.75 12 17.75C11.7348 17.75 11.4804 17.6446 11.2929 17.4571C11.1054 17.2696 11 17.0152 11 16.75V8.75C11 8.60361 11.0322 8.459 11.0942 8.32639C11.1562 8.19378 11.2466 8.07641 11.3589 7.98256C11.4713 7.88871 11.6029 7.82067 11.7444 7.78325C11.8859 7.74583 12.0339 7.73994 12.178 7.766C11.8577 6.42715 11.9697 5.02124 12.498 3.75H6C5.20435 3.75 4.44129 4.06607 3.87868 4.62868C3.31607 5.19129 3 5.95435 3 6.75V18.75C3 19.5456 3.31607 20.3087 3.87868 20.8713C4.44129 21.4339 5.20435 21.75 6 21.75H18C18.7956 21.75 19.5587 21.4339 20.1213 20.8713C20.6839 20.3087 21 19.5456 21 18.75V12.252ZM8 10.75C8.26522 10.75 8.51957 10.8554 8.70711 11.0429C8.89464 11.2304 9 11.4848 9 11.75V16.75C9 17.0152 8.89464 17.2696 8.70711 17.4571C8.51957 17.6446 8.26522 17.75 8 17.75C7.73478 17.75 7.48043 17.6446 7.29289 17.4571C7.10536 17.2696 7 17.0152 7 16.75V11.75C7 11.4848 7.10536 11.2304 7.29289 11.0429C7.48043 10.8554 7.73478 10.75 8 10.75ZM16 13.75C16.2652 13.75 16.5196 13.8554 16.7071 14.0429C16.8946 14.2304 17 14.4848 17 14.75V16.75C17 17.0152 16.8946 17.2696 16.7071 17.4571C16.5196 17.6446 16.2652 17.75 16 17.75C15.7348 17.75 15.4804 17.6446 15.2929 17.4571C15.1054 17.2696 15 17.0152 15 16.75V14.75C15 14.4848 15.1054 14.2304 15.2929 14.0429C15.4804 13.8554 15.7348 13.75 16 13.75Z" fill="white" fill-opacity="0.6"/>
</svg>
