<svg width="24" height="24" viewBox="0 0 24 24" fill="none" xmlns="http://www.w3.org/2000/svg">
<path d="M22 17.3613V22H17V19.5H14.5V17H12V14.9785C11.5182 15.2324 11.0137 15.4245 10.4863 15.5547C9.95898 15.6849 9.42188 15.75 8.875 15.75C8.24349 15.75 7.63477 15.6686 7.04883 15.5059C6.46289 15.3431 5.91602 15.112 5.4082 14.8125C4.90039 14.513 4.43815 14.1549 4.02148 13.7383C3.60482 13.3216 3.24349 12.8561 2.9375 12.3418C2.63151 11.8275 2.40039 11.2806 2.24414 10.7012C2.08789 10.1217 2.00651 9.51302 2 8.875C2 8.24349 2.08138 7.63477 2.24414 7.04883C2.4069 6.46289 2.63802 5.91602 2.9375 5.4082C3.23698 4.90039 3.59505 4.43815 4.01172 4.02148C4.42839 3.60482 4.89388 3.24349 5.4082 2.9375C5.92253 2.63151 6.4694 2.40039 7.04883 2.24414C7.62826 2.08789 8.23698 2.00651 8.875 2C9.50651 2 10.1152 2.08138 10.7012 2.24414C11.2871 2.4069 11.834 2.63802 12.3418 2.9375C12.8496 3.23698 13.3118 3.59505 13.7285 4.01172C14.1452 4.42839 14.5065 4.89388 14.8125 5.4082C15.1185 5.92253 15.3496 6.4694 15.5059 7.04883C15.6621 7.62826 15.7435 8.23698 15.75 8.875C15.75 9.20703 15.724 9.53581 15.6719 9.86133C15.6198 10.1868 15.5449 10.5059 15.4473 10.8184L22 17.3613ZM7 8.875C7.26042 8.875 7.50456 8.82617 7.73242 8.72852C7.96029 8.63086 8.15885 8.4974 8.32812 8.32812C8.4974 8.15885 8.63086 7.96029 8.72852 7.73242C8.82617 7.50456 8.875 7.26042 8.875 7C8.875 6.73958 8.82617 6.49544 8.72852 6.26758C8.63086 6.03971 8.4974 5.84115 8.32812 5.67188C8.15885 5.5026 7.96029 5.36914 7.73242 5.27148C7.50456 5.17383 7.26042 5.125 7 5.125C6.73958 5.125 6.49544 5.17383 6.26758 5.27148C6.03971 5.36914 5.84115 5.5026 5.67188 5.67188C5.5026 5.84115 5.36914 6.03971 5.27148 6.26758C5.17383 6.49544 5.125 6.73958 5.125 7C5.125 7.26042 5.17383 7.50456 5.27148 7.73242C5.36914 7.96029 5.5026 8.15885 5.67188 8.32812C5.84115 8.4974 6.03971 8.63086 6.26758 8.72852C6.49544 8.82617 6.73958 8.875 7 8.875Z" fill="white" fill-opacity="0.6"/>
</svg>
