<svg width="24" height="24" viewBox="0 0 24 24" fill="none" xmlns="http://www.w3.org/2000/svg">
<path d="M12.0121 9.90352C11.3113 9.90352 10.6551 10.1754 10.1582 10.6723C9.66366 11.1691 9.38944 11.8254 9.38944 12.5262C9.38944 13.227 9.66366 13.8832 10.1582 14.3801C10.6551 14.8746 11.3113 15.1488 12.0121 15.1488C12.7129 15.1488 13.3691 14.8746 13.866 14.3801C14.3605 13.8832 14.6348 13.227 14.6348 12.5262C14.6348 11.8254 14.3605 11.1691 13.866 10.6723C13.6233 10.4277 13.3345 10.2338 13.0162 10.1018C12.6979 9.96988 12.3566 9.90246 12.0121 9.90352ZM21.6754 15.423L20.1426 14.1129C20.2152 13.6676 20.2527 13.2129 20.2527 12.7605C20.2527 12.3082 20.2152 11.8512 20.1426 11.4082L21.6754 10.098C21.7912 9.99892 21.874 9.8669 21.913 9.71953C21.9519 9.57216 21.9451 9.41643 21.8933 9.27305L21.8723 9.21211C21.4504 8.03248 20.8183 6.93904 20.0066 5.98477L19.9644 5.93555C19.8659 5.81965 19.7345 5.73634 19.5877 5.6966C19.4408 5.65685 19.2853 5.66253 19.1418 5.71289L17.2387 6.39023C16.5355 5.81367 15.7527 5.35898 14.9043 5.04258L14.5363 3.05273C14.5086 2.90283 14.4358 2.76493 14.3278 2.65734C14.2198 2.54975 14.0816 2.47757 13.9316 2.45039L13.8683 2.43867C12.6496 2.21836 11.3652 2.21836 10.1465 2.43867L10.0832 2.45039C9.93318 2.47757 9.79499 2.54975 9.68699 2.65734C9.57898 2.76493 9.50626 2.90283 9.4785 3.05273L9.10819 5.05195C8.26779 5.37088 7.4849 5.82447 6.79022 6.39492L4.87303 5.71289C4.72952 5.66213 4.57395 5.65624 4.42701 5.69602C4.28006 5.73579 4.1487 5.81933 4.05038 5.93555L4.00819 5.98477C3.19794 6.94006 2.56601 8.03322 2.14257 9.21211L2.12147 9.27305C2.016 9.56602 2.10272 9.89414 2.33944 10.098L3.891 11.4223C3.81835 11.8629 3.78319 12.3129 3.78319 12.7582C3.78319 13.2082 3.81835 13.6582 3.891 14.0941L2.34413 15.4184C2.22834 15.5175 2.14546 15.6495 2.10653 15.7969C2.06759 15.9442 2.07444 16.1 2.12616 16.2434L2.14725 16.3043C2.57147 17.4832 3.19725 18.573 4.01288 19.5316L4.05506 19.5809C4.15363 19.6968 4.285 19.7801 4.43185 19.8198C4.57871 19.8596 4.73416 19.8539 4.87772 19.8035L6.79491 19.1215C7.49335 19.6957 8.27147 20.1504 9.11288 20.4645L9.48319 22.4637C9.51095 22.6136 9.58367 22.7515 9.69167 22.8591C9.79968 22.9667 9.93787 23.0388 10.0879 23.066L10.1512 23.0777C11.3819 23.2992 12.6423 23.2992 13.873 23.0777L13.9363 23.066C14.0863 23.0388 14.2245 22.9667 14.3325 22.8591C14.4405 22.7515 14.5132 22.6136 14.541 22.4637L14.909 20.4738C15.7574 20.1551 16.5402 19.7027 17.2433 19.1262L19.1465 19.8035C19.29 19.8543 19.4456 19.8602 19.5925 19.8204C19.7394 19.7806 19.8708 19.6971 19.9691 19.5809L20.0113 19.5316C20.8269 18.5684 21.4527 17.4832 21.8769 16.3043L21.898 16.2434C21.9988 15.9527 21.9121 15.627 21.6754 15.423ZM12.0121 16.6465C9.73631 16.6465 7.89178 14.802 7.89178 12.5262C7.89178 10.2504 9.73631 8.40586 12.0121 8.40586C14.2879 8.40586 16.1324 10.2504 16.1324 12.5262C16.1324 14.802 14.2879 16.6465 12.0121 16.6465Z" fill="white" fill-opacity="0.6"/>
</svg>
