<svg width="24" height="24" viewBox="0 0 24 24" fill="none" xmlns="http://www.w3.org/2000/svg">
<path d="M12 2.25C10.0716 2.25 8.18657 2.82183 6.58319 3.89317C4.97982 4.96451 3.73013 6.48726 2.99218 8.26884C2.25422 10.0504 2.06114 12.0108 2.43735 13.9021C2.81355 15.7934 3.74215 17.5307 5.10571 18.8943C6.46928 20.2579 8.20656 21.1865 10.0979 21.5627C11.9892 21.9389 13.9496 21.7458 15.7312 21.0078C17.5127 20.2699 19.0355 19.0202 20.1068 17.4168C21.1782 15.8134 21.75 13.9284 21.75 12C21.7473 9.41498 20.7192 6.93661 18.8913 5.10872C17.0634 3.28084 14.585 2.25273 12 2.25ZM9.10032 14.6006C9.05549 14.6898 8.99332 14.7691 8.91744 14.8339C8.84157 14.8988 8.75352 14.9478 8.65845 14.9782C8.56338 15.0085 8.46321 15.0196 8.3638 15.0108C8.26439 15.002 8.16775 14.9734 8.07953 14.9267C7.99132 14.88 7.9133 14.8162 7.85006 14.739C7.78681 14.6618 7.73961 14.5728 7.71122 14.4771C7.68283 14.3814 7.67382 14.281 7.68472 14.1818C7.69562 14.0826 7.72621 13.9866 7.77469 13.8994C8.08856 13.3155 8.25284 12.6629 8.25284 12C8.25284 11.3371 8.08856 10.6845 7.77469 10.1006C7.68655 9.92531 7.67063 9.72244 7.73034 9.53553C7.79005 9.34861 7.92063 9.19254 8.09407 9.10079C8.26752 9.00903 8.47002 8.98891 8.65813 9.04473C8.84624 9.10055 9.00499 9.22787 9.10032 9.39937C9.52416 10.2007 9.74573 11.0935 9.74573 12C9.74573 12.9065 9.52416 13.7993 9.10032 14.6006ZM11.7253 16.1006C11.68 16.1893 11.6175 16.2681 11.5415 16.3323C11.4654 16.3966 11.3773 16.4451 11.2823 16.4749C11.1873 16.5048 11.0874 16.5155 10.9882 16.5063C10.8891 16.4971 10.7927 16.4682 10.7048 16.4214C10.617 16.3746 10.5393 16.3108 10.4763 16.2337C10.4134 16.1565 10.3664 16.0676 10.3382 15.9721C10.3099 15.8766 10.301 15.7765 10.3119 15.6775C10.3228 15.5785 10.3533 15.4827 10.4016 15.3956C10.9588 14.3498 11.2502 13.1831 11.2502 11.9981C11.2502 10.8132 10.9588 9.6464 10.4016 8.60063C10.3533 8.51355 10.3228 8.41774 10.3119 8.31876C10.301 8.21978 10.3099 8.11963 10.3382 8.02414C10.3664 7.92865 10.4134 7.83974 10.4763 7.7626C10.5393 7.68545 10.617 7.62161 10.7048 7.57481C10.7927 7.528 10.8891 7.49916 10.9882 7.48998C11.0874 7.48079 11.1873 7.49144 11.2823 7.5213C11.3773 7.55117 11.4654 7.59965 11.5415 7.66391C11.6175 7.72818 11.68 7.80695 11.7253 7.89563C12.3988 9.15856 12.751 10.5679 12.7508 11.9992C12.7507 13.4305 12.3982 14.8397 11.7244 16.1025L11.7253 16.1006ZM14.3503 17.6006C14.2485 17.7593 14.0907 17.8739 13.9083 17.9214C13.7258 17.969 13.5322 17.9461 13.3658 17.8574C13.1995 17.7686 13.0727 17.6204 13.0107 17.4424C12.9487 17.2643 12.9561 17.0695 13.0313 16.8966C13.8379 15.3905 14.26 13.7085 14.26 12C14.26 10.2915 13.8379 8.60949 13.0313 7.10344C12.9375 6.9279 12.9174 6.72231 12.9752 6.5319C13.033 6.34149 13.1642 6.18186 13.3397 6.08813C13.5152 5.99439 13.7208 5.97422 13.9112 6.03207C14.1016 6.08991 14.2613 6.22102 14.355 6.39656C15.2768 8.12062 15.7586 10.0456 15.7578 12.0006C15.757 13.9556 15.2735 15.8801 14.3503 17.6034V17.6006Z" fill="white" fill-opacity="0.6"/>
</svg>
