<svg width="24" height="24" viewBox="0 0 24 24" fill="none" xmlns="http://www.w3.org/2000/svg">
<path d="M9.75 1.5C9.55109 1.5 9.36032 1.57902 9.21967 1.71967C9.07902 1.86032 9 2.05109 9 2.25V3H7.9785C7.24924 2.99984 6.54489 3.26531 5.99717 3.74678C5.44944 4.22825 5.09584 4.89274 5.0025 5.616L4.7595 7.5H3.75C3.55109 7.5 3.36032 7.57902 3.21967 7.71967C3.07902 7.86032 3 8.05109 3 8.25C3 8.44891 3.07902 8.63968 3.21967 8.78033C3.36032 8.92098 3.55109 9 3.75 9H4.566L4.551 9.111C4.09994 9.25842 3.70704 9.54469 3.42847 9.92886C3.1499 10.313 2.99993 10.7755 3 11.25V15.75C3 16.3467 3.23705 16.919 3.65901 17.341C4.08097 17.7629 4.65326 18 5.25 18H18.75C19.3467 18 19.919 17.7629 20.341 17.341C20.7629 16.919 21 16.3467 21 15.75V11.25C21.0001 10.7738 20.8491 10.3099 20.5688 9.92499C20.2884 9.54008 19.8932 9.25403 19.44 9.108L19.4265 9H20.25C20.4489 9 20.6397 8.92098 20.7803 8.78033C20.921 8.63968 21 8.44891 21 8.25C21 8.05109 20.921 7.86032 20.7803 7.71967C20.6397 7.57902 20.4489 7.5 20.25 7.5H19.2345L18.9945 5.6205C18.9022 4.89668 18.5493 4.23132 18.0017 3.74896C17.4542 3.26661 16.7497 3.00034 16.02 3H15V2.25C15 2.05109 14.921 1.86032 14.7803 1.71967C14.6397 1.57902 14.4489 1.5 14.25 1.5H9.75ZM16.02 4.5C16.3846 4.50033 16.7366 4.63344 17.0102 4.87445C17.2838 5.11545 17.4602 5.44785 17.5065 5.8095L17.9145 9H6.0795L6.4905 5.808C6.53717 5.44637 6.71397 5.11412 6.98783 4.87339C7.2617 4.63265 7.61387 4.49992 7.9785 4.5H16.0185H16.02ZM6.753 13.5C6.753 13.3525 6.78206 13.2064 6.83852 13.0701C6.89498 12.9337 6.97774 12.8099 7.08207 12.7056C7.18639 12.6012 7.31025 12.5185 7.44656 12.462C7.58286 12.4056 7.72896 12.3765 7.8765 12.3765C8.02404 12.3765 8.17014 12.4056 8.30645 12.462C8.44275 12.5185 8.56661 12.6012 8.67093 12.7056C8.77526 12.8099 8.85802 12.9337 8.91448 13.0701C8.97094 13.2064 9 13.3525 9 13.5C9 13.798 8.88163 14.0837 8.67093 14.2944C8.46024 14.5051 8.17447 14.6235 7.8765 14.6235C7.57853 14.6235 7.29276 14.5051 7.08207 14.2944C6.87137 14.0837 6.753 13.798 6.753 13.5ZM15 13.5C15 13.202 15.1184 12.9163 15.3291 12.7056C15.5398 12.4949 15.8255 12.3765 16.1235 12.3765C16.4215 12.3765 16.7072 12.4949 16.9179 12.7056C17.1286 12.9163 17.247 13.202 17.247 13.5C17.247 13.798 17.1286 14.0837 16.9179 14.2944C16.7072 14.5051 16.4215 14.6235 16.1235 14.6235C15.8255 14.6235 15.5398 14.5051 15.3291 14.2944C15.1184 14.0837 15 13.798 15 13.5ZM16.4955 19.5H18.7455V19.875C18.7455 20.1734 18.627 20.4595 18.416 20.6705C18.205 20.8815 17.9189 21 17.6205 21C17.3221 21 17.036 20.8815 16.825 20.6705C16.614 20.4595 16.4955 20.1734 16.4955 19.875V19.5ZM5.25 19.5H7.5V19.875C7.5 20.1734 7.38147 20.4595 7.1705 20.6705C6.95952 20.8815 6.67337 21 6.375 21C6.07663 21 5.79048 20.8815 5.5795 20.6705C5.36853 20.4595 5.25 20.1734 5.25 19.875V19.5Z" fill="white" fill-opacity="0.6"/>
</svg>
